<?xml version="1.0" encoding="UTF-8" standalone="no"?>
<!-- Created with Inkscape (http://www.inkscape.org/) -->

<svg
   xmlns:dc="http://purl.org/dc/elements/1.1/"
   xmlns:cc="http://creativecommons.org/ns#"
   xmlns:rdf="http://www.w3.org/1999/02/22-rdf-syntax-ns#"
   xmlns:svg="http://www.w3.org/2000/svg"
   xmlns="http://www.w3.org/2000/svg"
   xmlns:sodipodi="http://sodipodi.sourceforge.net/DTD/sodipodi-0.dtd"
   xmlns:inkscape="http://www.inkscape.org/namespaces/inkscape"
   width="22mm"
   height="22mm"
   viewBox="0 0 22 22"
   version="1.1"
   id="svg1130"
   inkscape:version="0.92.5 (2060ec1f9f, 2020-04-08)"
   sodipodi:docname="science.svg">
  <defs
     id="defs1124" />
  <sodipodi:namedview
     id="base"
     pagecolor="#ffffff"
     bordercolor="#666666"
     borderopacity="1.0"
     inkscape:pageopacity="0.0"
     inkscape:pageshadow="2"
     inkscape:zoom="0.3652046"
     inkscape:cx="394.48234"
     inkscape:cy="-144.0143"
     inkscape:document-units="mm"
     inkscape:current-layer="layer1"
     showgrid="false"
     inkscape:window-width="851"
     inkscape:window-height="396"
     inkscape:window-x="998"
     inkscape:window-y="1002"
     inkscape:window-maximized="0"
     fit-margin-top="0"
     fit-margin-left="0"
     fit-margin-right="0"
     fit-margin-bottom="0" />
  <metadata
     id="metadata1127">
    <rdf:RDF>
      <cc:Work
         rdf:about="">
        <dc:format>image/svg+xml</dc:format>
        <dc:type
           rdf:resource="http://purl.org/dc/dcmitype/StillImage" />
        <dc:title></dc:title>
      </cc:Work>
    </rdf:RDF>
  </metadata>
  <g
     inkscape:label="Layer 1"
     inkscape:groupmode="layer"
     id="layer1"
     transform="translate(-15.69932,-57.895305)">
    <g
       id="g6191"
       transform="matrix(1.1052632,0,0,1.1052632,-411.60456,237.07118)"
       style="stroke-width:0.90476191">
      <circle
         inkscape:export-ydpi="100"
         inkscape:export-xdpi="100"
         r="9.5"
         cy="-152.15912"
         cx="396.56064"
         id="path9299-8-1"
         style="opacity:1;fill:none;fill-opacity:1;fill-rule:evenodd;stroke:#763a92;stroke-width:0.90476191;stroke-miterlimit:4;stroke-dasharray:none;stroke-opacity:1" />
      <rect
         y="-153.42381"
         x="393.04175"
         height="6.6133733"
         width="6.6946492"
         id="rect11081-3-7-1"
         style="opacity:1;fill:#fcf039;fill-opacity:1;fill-rule:evenodd;stroke:#763a92;stroke-width:0.27142859;stroke-miterlimit:4;stroke-dasharray:none;stroke-opacity:1" />
      <path
         sodipodi:nodetypes="ssssssssssssss"
         inkscape:connector-curvature="0"
         id="path10968-1-3-9-1"
         d="m 400.5782,-153.96807 c 0.29469,0.74189 -0.62377,2.50302 0.12534,3.65945 0.51894,0.80113 -0.20934,2.18871 -0.72714,1.77016 -1.61292,-1.30372 0.44681,-4.39107 -1.83484,-4.3988 -0.63338,-0.002 -1.81996,0.41605 -1.66341,1.67876 0.10525,0.84891 0.30852,2.14355 -0.5257,2.00921 -1.34927,-0.21728 -0.38104,-1.4431 -0.52749,-2.24203 -0.10091,-0.55048 -0.63098,-0.91386 -0.83692,-0.41009 -0.23489,0.57459 0.59543,5.05847 -0.58914,4.75304 -0.71599,-0.18461 -0.59668,-1.24123 -0.34822,-2.06311 0.28044,-0.92766 -0.0822,-1.91056 -0.6033,-1.6118 -0.78824,0.45189 -0.85994,-2.26385 -0.78842,-3.14479 0.13777,-1.69668 2.43726,-2.6889 4.15962,-3.39036 2.0621,-0.83983 3.62687,2.04918 4.15962,3.39036 z"
         style="opacity:1;fill:#a0cc9e;fill-opacity:1;fill-rule:evenodd;stroke:#763a92;stroke-width:0.27142859;stroke-miterlimit:4;stroke-dasharray:none;stroke-opacity:1" />
    </g>
  </g>
</svg>
